# xmcd
#
# Track frame offsets:
#	150
#	18337
#	68075
#	82915
#	108387
#	143545
#	173697
#	209595
#
# Disc length: 2953 seconds
#
# Revision: 1
# Processed by: cddbd v1.5PL3 Copyright (c) Steve Scherf et al.
# Submitted via: EasyCDDAExtractor 6.2.0.3
#
DISCID=600b8708
DTITLE=Songs of Sanctuary
DYEAR=1900
DGENRE=
TTITLE0=Adiemus
TTITLE1=Tintinnabulum
TTITLE2=Cantus Inaequalis
TTITLE3=Cantus Insolitus
TTITLE4=In Caelum Fero
TTITLE5=Cantus Iteratus
TTITLE6=Kayama
TTITLE7=Hymn
EXTD=
EXTT0=
EXTT1=
EXTT2=
EXTT3=
EXTT4=
EXTT5=
EXTT6=
EXTT7=
PLAYORDER=
